# xmcd
#
# Track frame offsets:
#	151
#	21778
#	36991
#	50726
#	69860
#	87707
#	103507
#	121428
#	138251
#	151426
#	168064
#	182621
#	197316
#	219375
#	234423
#
# Disc length: 3285 seconds
#
# Revision: 1
# Processed by: cddbd v1.5.2PL0 Copyright (c) Steve Scherf et al.
# Submitted via: audiograbber 1.83.01
#
DISCID=c40cd30f
DTITLE=Rusty Reed - Here On Earth
DYEAR=1999
DGENRE=Blues
TTITLE0=Up The Time
TTITLE1=Mr. Reed
TTITLE2=Plantation
TTITLE3=Got Love If You Want It
TTITLE4=Comin' Home Babe
TTITLE5=Nothin' At All
TTITLE6=Born Under A Bad Sign
TTITLE7=Here On Earth
TTITLE8=Round and Round
TTITLE9=Hip Lip
TTITLE10=Rainin'In My Heart
TTITLE11=Don't Need No Horse
TTITLE12=Hard Hearted Woman
TTITLE13=Get Off My Bus
TTITLE14=Boot Rag
EXTD=
EXTT0=
EXTT1=
EXTT2=
EXTT3=
EXTT4=
EXTT5=
EXTT6=
EXTT7=
EXTT8=
EXTT9=
EXTT10=
EXTT11=
EXTT12=
EXTT13=
EXTT14=
PLAYORDER=
